# xmcd CD database file
#
# Track frame offsets:
#	150
#	18209
#	39509
#	52367
#	64181
#	86328
#	98671
#	114429
#	141157
#	162708
#
# Disc length: 2417 seconds
#
# Revision: 0
# Processed by: cddbd v1.5.1PL2 Copyright (c) Steve Scherf et al.
# Submitted via: CDex 1.51
#
DISCID=84096f0a
DTITLE=Mule - The Dancer From Flash Back City
DYEAR=2005
DGENRE=Rock
TTITLE0=バナナフィッシュにさよならを
TTITLE1=24時のイントロダクション
TTITLE2=想い出重奏プリズム
TTITLE3=白線 from FLASH BACK CITY
TTITLE4=八月のレベレント
TTITLE5=トゥエルブ
TTITLE6=ラストナイトライト
TTITLE7=夜間避行
TTITLE8=永遠に近い午後のスローモーション
TTITLE9=赤い逆光 from FLASH BACK CITY
EXTD=YEAR: 2005
EXTT0=
EXTT1=
EXTT2=
EXTT3=
EXTT4=
EXTT5=
EXTT6=
EXTT7=
EXTT8=
EXTT9=
PLAYORDER=
